/* XPM */
static char * build_xpm[] = {
"24 24 7 1",
" 	c None",
".	c #000000",
"+	c #C88610",
"@	c #E1BB07",
"#	c #6F0909",
"$	c #C81010",
"%	c #2D0404",
"                        ",
"                        ",
"                        ",
"            ..          ",
"            .+..        ",
"            .@@+..      ",
"   ......   .@@@@+..    ",
"  .++++++....@@@@@@+..  ",
"  .++++++....@@@@@@@@+..",
"   ......   .@@@@@@+..  ",
"            .@@@@+..    ",
"     ........@@+...     ",
"     .######.+..##.     ",
"     .#$$$$$..##$$.     ",
"     .#$$$$$##$$$$.     ",
"     .#$$$$$$$$$$%.     ",
"     .#$%%%%%%%%%%.     ",
"........................",
".##########.###########.",
".#$$$$$$$$$.#$$$$$$$$$$.",
".#$$$$$$$$$.#$$$$$$$$$$.",
".#$$$$$$$$%.#$$$$$$$$$%.",
".#$%%%%%%%%.#$%%%%%%%%%.",
"........................"};
