/* XPM */
static char * help_xpm[] = {
"24 24 8 1",
" 	c None",
".	c #000000",
"+	c #A27830",
"@	c #6B490E",
"#	c #87601C",
"$	c #CBA35D",
"%	c #F4DBAE",
"&	c #D4B98A",
" . .....................",
".+.@###################.",
".+$@++++++++++++++++++#.",
".+$@++++++++++++++++++#.",
".+$@+....++.+.+++.+.++#.",
".+$@++++.++.++.+.++.++#.",
".+$@++++.+.+.+.+.+.+.+#.",
".+$@+.++.+...++.++...+#.",
".+$@++..+.+++.+.+.+++.#.",
".+$@++++++++++++++++++#.",
".+$@++++++++++++++++++#.",
".+$@+.++.+....+.+++..+#.",
".+$@+.++.+.++++.+++.+.#.",
".+$@+....+..+++.+++...#.",
".+$@+.++.+.++++.+++.++#.",
".+$@+.++.+....+...+.++#.",
".+$@++++++++++++++++++#.",
".+$@###################.",
".+......................",
"..%%%%%%%%%%%%%%%%%%%%. ",
".&&&&&&&&&&&&&&&&&&&&&. ",
".%%%%%%%%%%%%%%%%%%%%%. ",
" .&&&&&&&&&&&&&&&&&&&&. ",
"  ......................"};
