/* XPM */
static char * add_xpm[] = {
"24 24 6 1",
" 	c None",
".	c #000000",
"+	c #41EC4D",
"@	c #10C81B",
"#	c #FFFFFF",
"$	c #079A11",
"     ..                 ",
"    .+@.                ",
"    .+@.............    ",
"    .+@.############.   ",
" ....@@....##########.  ",
".+++@@@@@@@.##########. ",
".@@@@@@@$$$.###########.",
" ....@@....##.......###.",
"    .@$.###############.",
"    .@$.###############.",
"    .@$.##..........###.",
"     ..################.",
"      .################.",
"      .###..........###.",
"      .################.",
"      .################.",
"      .###..........###.",
"      .################.",
"      .################.",
"      .###..........###.",
"      .################.",
"      .################.",
"      .################.",
"      .................."};
