/* XPM */
static char * compile_xpm[] = {
"24 24 9 1",
" 	c None",
".	c #000000",
"+	c #1E1E1E",
"@	c #6A6A6A",
"#	c #313131",
"$	c #535353",
"%	c #581900",
"&	c #7E2806",
"*	c #692105",
"                        ",
"                        ",
"            ..    ...   ",
"    ........+.    .@.   ",
"   .++######+.    .$.   ",
"  ...+++#####.    ...   ",
" ..  ....+..+.    .#.   ",
" .    .%%.  ..    .#.   ",
"      .%&.        .#.   ",
"      .%&.        .#.   ",
"      .*&.        .#.   ",
"      .*&.        .+.   ",
"      .*&.        ...   ",
"      .*&.       .%&%.  ",
"      .*&.       .%&*.  ",
"      .*&.       .*&*.  ",
"      .*&.       .*&*.  ",
"      .*&.       .*&*.  ",
"      .*&.       .*&*.  ",
"      .%&.       .%&*.  ",
"      .%&.       .%&%.  ",
"      .%%.       .%%%.  ",
"      ....        ...   ",
"                        "};
