/* XPM */
static char * run_xpm[] = {
"24 24 6 1",
" 	c None",
".	c #000000",
"+	c #6F0909",
"@	c #2D0404",
"#	c #C81010",
"$	c #FFFFFF",
"                        ",
"                        ",
"                        ",
"                        ",
"                        ",
"                        ",
"                        ",
"      ..                ",
"     .++..              ",
"    .@.+++. .           ",
"    .#+..++..           ",
"   .+###+....           ",
"   .+######+$..         ",
"  .+#######$#+$...      ",
"  .$$+#######$#+$+..    ",
"   ..$$$$+#####$###+.   ",
"     ....$$$$+######+.  ",
"         ....$$$$$$$$.  ",
"             ........   ",
"                        ",
"                        ",
"                        ",
"                        ",
"                        "};
